<svg id="Layer_1" data-name="Layer 1" xmlns="http://www.w3.org/2000/svg" viewBox="0 0 385 220"><defs><style>.cls-1{fill:#f1f0f2;}.cls-2{fill:#312e2d;}.cls-3{fill:#d8d4d4;}.cls-4{fill:#fff;}.cls-5{fill:#d7d6d6;}.cls-6{fill:#c7c6c5;}.cls-7{fill:#f3f3f3;stroke:#333535;stroke-miterlimit:10;stroke-width:0.25px;}.cls-8{fill:#333535;}.cls-9{fill:#9f9f9f;}.cls-10{fill:#d7e3f4;}.cls-11{fill:#0d121e;}.cls-12{fill:#e8eae8;}.cls-13{fill:#d1d4d2;}.cls-14{fill:#9fa09f;}.cls-15{fill:#c2c1c1;}.cls-16{fill:#f0efef;}.cls-17{fill:#d84241;}.cls-18{fill:#f2df83;}.cls-19{fill:#298441;}.cls-20{fill:#dde0dc;}.cls-21{fill:#5299cd;}.cls-22{fill:#c8c8ce;}.cls-23{fill:#c3b6d2;}.cls-24{fill:#e6e6ed;}.cls-25{fill:#e7e0ee;}.cls-26,.cls-27,.cls-28,.cls-29,.cls-30,.cls-31,.cls-32,.cls-33,.cls-34,.cls-35,.cls-36,.cls-37,.cls-39{isolation:isolate;}.cls-27{opacity:0.3;}.cls-27,.cls-28{font-size:4.89px;fill:#9c93a5;font-family:MoskBold700, Mosk;}.cls-29{fill:#60656e;}.cls-29,.cls-30,.cls-31,.cls-32,.cls-33,.cls-34,.cls-35,.cls-36,.cls-37,.cls-39{opacity:0.68;}.cls-30{fill:#5f6a6c;}.cls-31{fill:#5e6965;}.cls-32{fill:#5f675d;}.cls-33{fill:#67675e;}.cls-34{fill:#67655f;}.cls-35{fill:#676460;}.cls-36{fill:#67605c;}.cls-37{fill:#615654;}.cls-38{fill:#222323;}.cls-39{fill:#66606c;}.cls-40{fill:#64bc46;}.cls-41{fill:#8d8377;}.cls-42{fill:#a3988e;}.cls-43{fill:#8da37f;}.cls-44{fill:#8b9668;}.cls-45{fill:#7f9372;}.cls-46{fill:#aec99d;}.cls-47{fill:#c4bcb5;}.cls-48{fill:#4d455a;}.cls-49{fill:#ada1b5;}.cls-50{fill:#5c6789;}.cls-51{fill:#f3f1df;}.cls-52{fill:#d1cdb6;}.cls-53{fill:#a51d54;}</style></defs><g id="Layer_2" data-name="Layer 2"><rect class="cls-1" x="-6.53" y="-94.83" width="394.6" height="335.58"/></g><g id="Layer_1-2" data-name="Layer 1"><path class="cls-2" d="M285.93,185.85H71.77s-3.64-.08-3.64,4.17c0,0,.38,3.48,3.49,3.48H285.93s4.12-.07,4.12-3.83S285.93,185.85,285.93,185.85Z"/><path class="cls-3" d="M256.58,185.85H268s.75-1.28.18-2.18a9,9,0,0,1-5.81,1.63,13.75,13.75,0,0,1-6.18-1.63S255.74,185.16,256.58,185.85Z"/><path class="cls-4" d="M262.23,180.83s-4.52-.19-6,2.82a12,12,0,0,0,6.17,1.64,10.22,10.22,0,0,0,5.81-1.64S267.33,180.94,262.23,180.83Z"/><rect class="cls-5" x="186.56" y="183.72" width="50.47" height="2.12"/><polygon class="cls-6" points="198.09 183.72 225.87 183.72 224.09 172.76 199.54 172.76 198.09 183.72"/><path class="cls-7" d="M136.6,172.76l151.31-.13a2.06,2.06,0,0,0,2-2.13V156.06H133.64V170A2.64,2.64,0,0,0,136.6,172.76Z"/><path class="cls-8" d="M289.89,156.05l.16-81.27s-.5-4-4.11-4H138s-4.38-.06-4.43,4.89,0,80.42,0,80.42Z"/><circle class="cls-9" cx="211.87" cy="164.65" r="3.01"/><rect class="cls-10" x="139.44" y="75.8" width="145.16" height="75.59"/><rect class="cls-11" x="190.25" y="75.8" width="94.35" height="75.59"/><rect class="cls-6" x="190.11" y="75.8" width="94.35" height="5.23"/><rect class="cls-12" x="143.76" y="78.42" width="41.3" height="69.91"/><rect class="cls-13" x="143.76" y="78.42" width="41.3" height="3.22"/><circle class="cls-14" cx="146.12" cy="80.15" r="0.71"/><circle class="cls-15" cx="148.82" cy="80.15" r="0.71"/><circle class="cls-14" cx="151.52" cy="80.15" r="0.71"/><rect class="cls-13" x="143.76" y="145.97" width="41.3" height="2.35"/><rect class="cls-16" x="181.95" y="81.63" width="3.11" height="64.34"/><circle class="cls-17" cx="194.85" cy="78.34" r="1.1"/><circle class="cls-18" cx="199.04" cy="78.42" r="1.1"/><circle class="cls-19" cx="203" cy="78.34" r="1.1"/><path class="cls-20" d="M184.37,83.75V99.59a.87.87,0,0,1-.86.9.84.84,0,0,1-1-.66.65.65,0,0,1,0-.24c0-1.09,0-15.84,0-15.84a1,1,0,0,1,.92-.9C184.25,82.79,184.35,83.73,184.37,83.75Z"/><path class="cls-21" d="M149.73,96.32h25.32s.6-.06.63.34a.53.53,0,0,1-.46.57H149.71s-.48-.07-.51-.46A.47.47,0,0,1,149.73,96.32Z"/><path class="cls-21" d="M149.82,92.22h29.77s.69,0,.75.35c0,0,.06.57-.69.57H149.82s-.57-.07-.61-.46C149.21,92.68,149.18,92.22,149.82,92.22Z"/><path class="cls-21" d="M149.73,88h25.49s.59-.06.62.34a.52.52,0,0,1-.45.57H149.73s-.48-.06-.52-.46C149.21,88.47,149.19,88,149.73,88Z"/><path class="cls-22" d="M177.92,103.25H151a2.67,2.67,0,0,0-2.55,2.78h0v16.88a2.18,2.18,0,0,0,1.84,2.48,2.64,2.64,0,0,0,.49,0h27.56a2.39,2.39,0,0,0,2-2.56v-17A2.4,2.4,0,0,0,177.92,103.25Z"/><path class="cls-23" d="M177.92,146H148.47V131.44a2.3,2.3,0,0,1,2.23-2.38h.11c2.38-.05,23.93,0,23.93,0a2.78,2.78,0,0,1,3.18,2.62Z"/><path class="cls-24" d="M152.12,117.8h19.35s.46,0,.48.34c0,0,0,.57-.43.57h-19.4a.48.48,0,0,1-.4-.46S151.7,117.8,152.12,117.8Z"/><path class="cls-24" d="M152,121.44h13.64s.32-.06.33.34c0,0,0,.57-.3.57H152s-.26-.06-.28-.46C151.72,121.89,151.71,121.44,152,121.44Z"/><path class="cls-25" d="M153.26,132.52H171s.42-.05.44.34c0,0,0,.57-.4.57H153.26a.46.46,0,0,1-.36-.46S152.88,132.52,153.26,132.52Z"/><path class="cls-25" d="M153.32,136.59h20.73s.49-.05.51.34c0,0,.05.57-.46.57H153.32a.49.49,0,0,1-.42-.46.41.41,0,0,1,.37-.45Z"/><path class="cls-25" d="M153.43,140.71H171s.42-.06.44.34c0,0,0,.56-.4.56H153.43a.45.45,0,0,1-.35-.45S153.06,140.71,153.43,140.71Z"/><path class="cls-25" d="M153.26,144.52h13.36s.31-.07.33.33c0,0,0,.57-.3.57H153.26s-.26,0-.27-.45C153,145,153,144.52,153.26,144.52Z"/><circle class="cls-24" cx="155.33" cy="110.31" r="4.23"/><g class="cls-26"><text class="cls-27" transform="translate(195.55 86.29)">22</text><text class="cls-28" transform="translate(195.55 91.59)">23</text><text class="cls-28" transform="translate(195.55 96.88)">24</text><text class="cls-28" transform="translate(195.55 102.18)">25</text><text class="cls-28" transform="translate(195.55 107.48)">26</text><text class="cls-28" transform="translate(195.55 112.77)">27</text><text class="cls-28" transform="translate(195.55 118.07)">28</text><text class="cls-28" transform="translate(195.55 123.36)">29</text><text class="cls-28" transform="translate(195.55 128.66)">30</text><text class="cls-28" transform="translate(195.55 133.95)">31</text><text class="cls-28" transform="translate(195.55 139.25)">32</text><text class="cls-28" transform="translate(195.55 144.54)">33</text><text class="cls-28" transform="translate(195.55 149.83)">34</text></g><rect class="cls-29" x="204.09" y="89.29" width="59.55" height="2.66"/><rect class="cls-30" x="204.09" y="94.51" width="48.44" height="2.72"/><rect class="cls-30" x="204.09" y="99.79" width="41.37" height="2.72"/><rect class="cls-31" x="204.09" y="104.73" width="34.35" height="2.72"/><rect class="cls-32" x="204.09" y="110.31" width="57.36" height="2.72"/><rect class="cls-32" x="204.09" y="115.54" width="44.46" height="3.18"/><rect class="cls-33" x="204.09" y="120.76" width="47.12" height="2.72"/><rect class="cls-34" x="204.09" y="125.91" width="55.09" height="2.72"/><rect class="cls-35" x="203.94" y="131.05" width="26.3" height="2.72"/><rect class="cls-36" x="204.09" y="136.64" width="47.12" height="2.72"/><rect class="cls-37" x="204.09" y="141.61" width="40.76" height="2.72"/><rect class="cls-37" x="204" y="146.6" width="62.46" height="2.72"/><rect class="cls-38" x="242.63" y="114.72" width="38.4" height="33.78"/><rect class="cls-6" x="242.63" y="114.72" width="38.4" height="3.99"/><circle class="cls-17" cx="244.75" cy="117.12" r="0.71"/><circle class="cls-18" cx="247.84" cy="117.12" r="0.71"/><circle class="cls-19" cx="250.89" cy="117.12" r="0.71"/><rect class="cls-39" x="204.09" y="84.12" width="47.5" height="2.66"/><path class="cls-40" d="M245.87,122.45l1.07,1-1.07,1s-.11.25,0,.4a.35.35,0,0,0,.5,0h0c.5-.42,1-.86,1.44-1.33L246.36,122s-.38-.15-.54,0A.3.3,0,0,0,245.87,122.45Z"/><path class="cls-40" d="M250.08,124.42H247.9a.37.37,0,0,0-.22.3s0,.33.2.35h2.2a.29.29,0,0,0,.2-.32.27.27,0,0,0-.19-.33Z"/><rect class="cls-2" x="46.3" y="96.31" width="78.82" height="3.47"/><polygon class="cls-41" points="53.42 81.63 55.17 96.31 70.7 96.31 71.92 81.63 53.42 81.63"/><path class="cls-42" d="M73.45,75.23H52.65s-1.42.06-1.42,1.2V80.8a1.37,1.37,0,0,0,1.26.83h21s.92-.09,1-.83,0-4.37,0-4.37a1.05,1.05,0,0,0-.89-1.19Z"/><path class="cls-43" d="M43.65,47.61s-1.56,20.2,9,27.62h5.7S55.47,54.66,43.65,47.61Z"/><path class="cls-43" d="M53,47.61s11.37,12.28,8.49,27.58H56.23S50.32,62,53,47.61Z"/><path class="cls-44" d="M55.92,40.1s14,16.23,6.74,35.1l-4.31,0S51.15,52.91,55.92,40.1Z"/><path class="cls-43" d="M69,42.76s6.59,18.87-3.87,32.35l-3.71.08S56.53,52.08,69,42.76Z"/><path class="cls-43" d="M73.45,75.23S82.07,61.59,79.76,47c0,0-11.1,8.77-15.5,28.28Z"/><path class="cls-45" d="M55.62,75.23l7.05,0S60.4,57.92,53.42,52.84c0,0-2.19,10-.33,15S55.62,75.23,55.62,75.23Z"/><path class="cls-45" d="M70.18,75.23l-8.72,0s.91-18.94,6.82-24.48C68.28,50.71,74.57,59.2,70.18,75.23Z"/><path class="cls-46" d="M58.35,75.23h7.73c.06.39-.93-12.35-3.86-19.06C62.22,56.15,58.35,65.87,58.35,75.23Z"/><path class="cls-47" d="M52.78,75.68s-.54-.37-.49,1.67.49,1.52.49,1.52A7.46,7.46,0,0,0,52.78,75.68Z"/><path class="cls-47" d="M53.18,79.59s-.11-.57-.59-.27S53,80.34,53.18,79.59Z"/><rect class="cls-48" x="108.35" y="57.67" width="8.92" height="38.64"/><rect class="cls-49" x="100.68" y="61.4" width="7.79" height="34.92"/><path class="cls-50" d="M86.39,94.58l7.13-25.92s-.06-1.31,1.87-.69l3.77,1.22s.85.22.4,1.81l-7,25a.4.4,0,0,0,.51.25.34.34,0,0,0,.17-.11l7.34-26.36s.27-1.07-.53-1.33-5.27-1.63-5.27-1.63-1.21-.39-1.51.58-7.55,26.93-7.55,26.93S85.79,94.89,86.39,94.58Z"/><path class="cls-51" d="M86.39,94.58l7.13-25.92s.11-1.2,1.48-.79,4.12,1.3,4.12,1.3.84.21.39,1.82l-7,25Z"/><path class="cls-52" d="M97.43,69.63s-2.69,8.42-2.86,9.69C94.57,79.32,97.55,71.51,97.43,69.63Z"/><polygon class="cls-53" points="99.29 72.59 96.73 71.84 96.01 74.2 98.39 75.06 98.26 73.45 99.29 72.59"/><path class="cls-4" d="M110.19,167.16c-1.71,3.29-.86,11.31-.63,13.86s3,4.95,3,4.95l8.23-.13s2.75-2.39,3-5,1.08-10.57-.63-13.87Z"/><path class="cls-4" d="M106.42,167.82s2.63.3,3,2l-.27,2.27s-.86-.39-.86-.74-.4-2.33-2.1-1.82-.91,3-.91,3l4,4.88.18,2.94L108.9,179s-5.34-5.49-5.18-6.65C103.69,172.36,102.65,168.48,106.42,167.82Z"/></g></svg>