<svg xmlns="http://www.w3.org/2000/svg" viewBox="0 0 1680 750"><defs><style>.cls-1{fill:#fff;}.cls-2{fill:#131f3e;}.cls-3{fill:#312e2d;}.cls-4{fill:#d8d4d4;}.cls-5{fill:#e3e5e5;}.cls-6{fill:#d3d3d3;}.cls-7{fill:#f3f3f3;stroke:#333535;stroke-miterlimit:10;stroke-width:0.25px;}.cls-8{fill:#404242;}.cls-9{fill:#9f9f9f;}.cls-10{fill:#d2dbec;}.cls-11{fill:#132139;}.cls-12{fill:#c7c6c5;}.cls-13{fill:#e8eae8;}.cls-14{fill:#d1d4d2;}.cls-15{fill:#9fa09f;}.cls-16{fill:#c2c1c1;}.cls-17{fill:#f0efef;}.cls-18{fill:#d84241;}.cls-19{fill:#f2df83;}.cls-20{fill:#298441;}.cls-21{fill:#dde0dc;}.cls-22{fill:#5299cd;}.cls-23{fill:#c3c9d7;}.cls-24{fill:#c3b6d2;}.cls-25{fill:#e4eaf6;}.cls-26{fill:#e7e0ee;}.cls-27{font-size:12px;fill:#9c93a5;font-family:MoskExtra-Bold800, Mosk;font-weight:700;opacity:0.3;}.cls-28{fill:#60656e;}.cls-28,.cls-29,.cls-30,.cls-31,.cls-32,.cls-33,.cls-34,.cls-35,.cls-36,.cls-38{opacity:0.68;}.cls-29{fill:#5f6a6c;}.cls-30{fill:#5e6965;}.cls-31{fill:#5f675d;}.cls-32{fill:#67675e;}.cls-33{fill:#67655f;}.cls-34{fill:#676460;}.cls-35{fill:#67605c;}.cls-36{fill:#615654;}.cls-37{fill:#333535;}.cls-38{fill:#66606c;}.cls-39{fill:#64bc46;}.cls-40{fill:#8d8377;}.cls-41{fill:#a3988e;}.cls-42{fill:#8da37f;}.cls-43{fill:#8b9668;}.cls-44{fill:#7f9372;}.cls-45{fill:#aec99d;}.cls-46{fill:#c4bcb5;}.cls-47{fill:#334370;}.cls-48{fill:#5a4a64;}.cls-49{fill:#5c6789;}.cls-50{fill:#f3f1df;}.cls-51{fill:#d1cdb6;}.cls-52{fill:#a51d54;}.cls-53{fill:#d85645;}.cls-54{fill:#b0362d;}.cls-55{fill:#fce9ac;}.cls-56{fill:#c8c9d1;}.cls-57{fill:#a2a2aa;}</style></defs><g id="Layer_1" data-name="Layer 1"><rect class="cls-1" y="1.12" width="726.94" height="748.88"/><rect class="cls-2" x="721.15" width="959.44" height="748.88"/></g><g id="Layer_2" data-name="Layer 2"><path class="cls-3" d="M884,627.85H358.26s-8.93-.18-8.93,10.23c0,0,.93,8.56,8.55,8.56H884s10.05-.18,10.05-9.39S884,627.85,884,627.85Z"/><path class="cls-4" d="M812,627.85h28s1.85-3.14.44-5.35c0,0-5.17,4.33-14.25,4a33.6,33.6,0,0,1-15.14-4S809.91,626.2,812,627.85Z"/><path class="cls-1" d="M825.83,615.58s-11.07-.47-14.81,6.92a29.41,29.41,0,0,0,15.14,4c9,0,14.25-4,14.25-4S838.38,615.84,825.83,615.58Z"/><rect class="cls-5" x="640.07" y="622.64" width="123.91" height="5.21"/><polygon class="cls-6" points="668.39 622.64 736.58 622.64 732.21 595.76 671.93 595.76 668.39 622.64"/><path class="cls-7" d="M517.42,595.76l371.49-.33a5.11,5.11,0,0,0,4.83-5.3c0-5.07,0-35.39,0-35.39H510.16V589S509.7,595.77,517.42,595.76Z"/><path class="cls-8" d="M893.74,554.74l.42-199.54s-1.25-9.91-10-9.91H520.91s-10.75-.14-10.89,12,.14,197.45.14,197.45Z"/><circle class="cls-9" cx="702.21" cy="575.85" r="7.4"/><rect class="cls-10" x="524.4" y="357.71" width="356.37" height="185.58"/><rect class="cls-11" x="649.14" y="357.71" width="231.63" height="185.58"/><rect class="cls-12" x="648.79" y="357.71" width="231.63" height="12.84"/><rect class="cls-13" x="535" y="364.13" width="101.4" height="171.63"/><rect class="cls-14" x="535" y="364.13" width="101.4" height="7.91"/><circle class="cls-15" cx="540.79" cy="368.39" r="1.74"/><circle class="cls-16" cx="547.42" cy="368.39" r="1.74"/><circle class="cls-15" cx="554.05" cy="368.39" r="1.74"/><rect class="cls-14" x="535" y="529.99" width="101.4" height="5.77"/><rect class="cls-17" x="628.77" y="372.04" width="7.63" height="157.95"/><circle class="cls-18" cx="660.42" cy="363.95" r="2.7"/><circle class="cls-19" cx="670.7" cy="364.13" r="2.7"/><circle class="cls-20" cx="680.43" cy="363.95" r="2.7"/><path class="cls-21" d="M634.7,377.25v38.86s-.05,2.23-2.12,2.23a2.09,2.09,0,0,1-2.49-2.23c-.07-2.65,0-38.86,0-38.86a2.57,2.57,0,0,1,2.29-2.23C634.35,374.86,634.65,377.18,634.7,377.25Z"/><path class="cls-22" d="M549.65,408.08h62.16s1.47-.13,1.54.84a1.27,1.27,0,0,1-1.4,1.4h-62.3s-1.18-.15-1.25-1.12C548.4,409.2,548.33,408.08,549.65,408.08Z"/><path class="cls-22" d="M549.87,398H623s1.72-.14,1.81.84c0,0,.16,1.39-1.64,1.39H549.87s-1.39-.15-1.47-1.12C548.4,399.15,548.31,398,549.87,398Z"/><path class="cls-22" d="M549.66,387.71h62.56s1.47-.14,1.54.84a1.27,1.27,0,0,1-1.4,1.4h-62.7s-1.19-.15-1.26-1.12C548.4,388.83,548.33,387.71,549.66,387.71Z"/><path class="cls-23" d="M618.86,425.11h-66s-6.28.28-6.28,6.84v41.44s-.7,6.14,5.72,6.14H620s4.74-.56,4.81-6.28,0-41.86,0-41.86S625,425.11,618.86,425.11Z"/><path class="cls-24" d="M618.86,530h-72.3V494.32s-.12-5.72,5.74-5.86,58.75,0,58.75,0,7.25-.84,7.81,6.42Z"/><path class="cls-25" d="M555.52,460.83H603s1.12-.14,1.18.84c0,0,.1,1.39-1.07,1.39H555.52a1.18,1.18,0,0,1-1-1.12S554.51,460.83,555.52,460.83Z"/><path class="cls-25" d="M555.24,469.76h33.49s.79-.14.83.84c0,0,.07,1.39-.76,1.39H555.24s-.64-.14-.68-1.12C554.56,470.87,554.53,469.76,555.24,469.76Z"/><path class="cls-26" d="M558.31,497h43.57s1-.14,1.07.84c0,0,.1,1.39-1,1.39H558.31a1.14,1.14,0,0,1-.88-1.12S557.38,497,558.31,497Z"/><path class="cls-26" d="M558.46,507h50.91s1.2-.14,1.26.84c0,0,.11,1.39-1.15,1.39h-51a1.22,1.22,0,0,1-1-1.12A1,1,0,0,1,558.46,507Z"/><path class="cls-26" d="M558.76,517.06h43.13a.89.89,0,0,1,1.06.84s.1,1.39-1,1.39H558.76a1.12,1.12,0,0,1-.87-1.12S557.84,517.06,558.76,517.06Z"/><path class="cls-26" d="M558.32,526.41h32.8s.77-.14.81.84c0,0,.07,1.39-.74,1.39H558.32s-.62-.14-.66-1.12C557.66,527.52,557.62,526.41,558.32,526.41Z"/><circle class="cls-25" cx="563.42" cy="442.44" r="10.37"/><text class="cls-27" transform="translate(662.15 383.48)">22<tspan x="0" y="13">23</tspan><tspan x="0" y="26">24</tspan><tspan x="0" y="39">25</tspan><tspan x="0" y="52">26</tspan><tspan x="0" y="65">27</tspan><tspan x="0" y="78">28</tspan><tspan x="0" y="91">29</tspan><tspan x="0" y="104">30</tspan><tspan x="0" y="117">31</tspan><tspan x="0" y="130">32</tspan><tspan x="0" y="143">33</tspan><tspan x="0" y="156">34</tspan></text><rect class="cls-28" x="683.13" y="390.83" width="146.19" height="6.54"/><rect class="cls-29" x="683.13" y="403.64" width="118.91" height="6.67"/><rect class="cls-29" x="683.13" y="416.59" width="101.56" height="6.67"/><rect class="cls-30" x="683.13" y="428.72" width="84.34" height="6.67"/><rect class="cls-31" x="683.13" y="442.44" width="140.81" height="6.67"/><rect class="cls-31" x="683.13" y="455.27" width="109.14" height="7.79"/><rect class="cls-32" x="683.13" y="468.1" width="115.67" height="6.67"/><rect class="cls-33" x="683.13" y="480.72" width="135.24" height="6.67"/><rect class="cls-34" x="682.75" y="493.34" width="64.57" height="6.67"/><rect class="cls-35" x="683.13" y="507.07" width="115.67" height="6.67"/><rect class="cls-36" x="683.13" y="519.29" width="100.08" height="6.67"/><rect class="cls-36" x="682.9" y="531.51" width="153.35" height="6.67"/><rect class="cls-37" x="777.72" y="453.27" width="94.28" height="82.92"/><rect class="cls-12" x="777.72" y="453.27" width="94.28" height="9.79"/><circle class="cls-18" cx="782.94" cy="459.16" r="1.74"/><circle class="cls-19" cx="790.52" cy="459.16" r="1.74"/><circle class="cls-20" cx="798" cy="459.16" r="1.74"/><rect class="cls-38" x="683.13" y="378.13" width="116.62" height="6.54"/><path class="cls-39" d="M785.7,472.22l2.6,2.61-2.6,2.37s-.28.61,0,1a.85.85,0,0,0,1.24.11,44.61,44.61,0,0,0,3.52-3.25l-3.58-3.89s-.94-.37-1.31.12A.74.74,0,0,0,785.7,472.22Z"/><path class="cls-39" d="M796,477.06h-5.35a.89.89,0,0,0-.53.75s0,.81.49.88H796a.73.73,0,0,0,.49-.81A.68.68,0,0,0,796,477.06Z"/><rect class="cls-3" x="295.74" y="408.08" width="193.49" height="8.52"/><polygon class="cls-40" points="313.23 372.04 317.51 408.08 355.65 408.08 358.63 372.04 313.23 372.04"/><path class="cls-41" d="M362.4,356.32H311.33s-3.49.14-3.49,2.93V370a3.29,3.29,0,0,0,3.07,2.05H362.4s2.23-.23,2.37-2.05,0-10.74,0-10.74A2.59,2.59,0,0,0,362.4,356.32Z"/><path class="cls-42" d="M289.23,288.5s-3.81,49.68,22.1,67.82h14S318.26,305.81,289.23,288.5Z"/><path class="cls-42" d="M312.12,288.5S340,318.64,333,356.22H320.12S305.61,323.85,312.12,288.5Z"/><path class="cls-43" d="M319.37,270.09s34.42,39.83,16.56,86.15l-10.6.08S307.65,301.53,319.37,270.09Z"/><path class="cls-42" d="M351.56,276.6s16.18,46.32-9.49,79.44l-9.12.18S320.86,299.48,351.56,276.6Z"/><path class="cls-42" d="M362.4,356.32s21.16-33.49,15.48-69.4c0,0-27.25,21.53-38,69.42Z"/><path class="cls-44" d="M318.63,356.32l17.3-.08s-5.58-42.43-22.7-54.9c0,0-5.39,24.65-.83,36.93S318.63,356.32,318.63,356.32Z"/><path class="cls-44" d="M354.35,356.32l-21.4-.1s2.24-46.51,16.75-60.09C349.7,296.13,365.14,317,354.35,356.32Z"/><path class="cls-45" d="M325.33,356.32h19c.14.95-2.28-30.25-9.49-46.79C334.81,309.53,325.33,333.34,325.33,356.32Z"/><path class="cls-46" d="M311.65,357.43s-1.31-.93-1.21,4.1,1.21,3.72,1.21,3.72A18.14,18.14,0,0,0,311.65,357.43Z"/><path class="cls-46" d="M312.67,367s-.24-1.4-1.42-.66S312.12,368.88,312.67,367Z"/><rect class="cls-47" x="448.07" y="313.2" width="21.91" height="94.88"/><rect class="cls-48" x="429.24" y="322.36" width="19.12" height="85.71"/><path class="cls-49" d="M394.16,403.76l17.49-63.63s-.14-3.21,4.61-1.67l9.21,2.93s2.09.56,1,4.46l-17.16,61.26a1,1,0,0,0,1.67.35l18-64.72s.65-2.61-1.3-3.26-12.93-4-12.93-4-3-1-3.72,1.42S392.49,403,392.49,403,392.67,404.6,394.16,403.76Z"/><path class="cls-50" d="M394.16,403.76l17.49-63.63s.29-3,3.65-1.93,10.17,3.19,10.17,3.19,2.08.52,1,4.46l-17.16,61.26Z"/><path class="cls-51" d="M421.28,342.57s-6.63,20.65-7,23.79C414.23,366.36,421.56,347.18,421.28,342.57Z"/><polygon class="cls-52" points="425.81 349.83 419.56 348 417.76 353.79 423.63 355.9 423.3 351.95 425.81 349.83"/><path class="cls-53" d="M452.57,582c-4.17,8.09-2.08,27.77-1.53,34s7.23,12.14,7.23,12.14l20.22-.32s6.7-5.86,7.25-12.14,2.66-26-1.53-34Z"/><path class="cls-54" d="M443.33,583.62s6.47.73,7.35,4.9l-.65,5.56s-2.1-1-2.1-1.81-1-5.72-5.16-4.46-2.23,7.39-2.23,7.39l9.79,12,.35,7.26-1.35-3.35s-13.12-13.54-12.7-16.33C436.63,594.78,434.08,585.25,443.33,583.62Z"/><path class="cls-55" d="M625.19,131.17s-2.84,20.59-20.42,21.71c0,0-21.63,1.49-24-21.2Z"/><rect class="cls-56" x="547.42" y="123.85" width="110.3" height="7.81"/><path class="cls-57" d="M553.23,123.85h100.1s3.53-58.79-50.05-58.79S553.23,123.85,553.23,123.85Z"/><path class="cls-56" d="M603.28,31.11s-16.09.74-16.65,17.21v19a79.31,79.31,0,0,1,16.65-2.26,67.17,67.17,0,0,1,16.65,2.26V47.11S619.47,32,603.28,31.11Z"/><rect class="cls-57" x="601.05" y="-100.6" width="4.09" height="124.84"/><path class="cls-57" d="M603.28,21.9s-5.81,0-5.72,5.44v5.09s4.24-1.44,5.72-1.32a39.69,39.69,0,0,1,5.63,1V27.17A5.36,5.36,0,0,0,603.28,21.9Z"/></g></svg>