<svg xmlns="http://www.w3.org/2000/svg" viewBox="0 0 1680 840"><defs><style>.cls-1{fill:#f7f2f7;}.cls-2{fill:#645970;}.cls-3{fill:#302d2d;}.cls-4{fill:#d8d4d4;}.cls-5{fill:#fff;}.cls-6{fill:#e3e5e5;}.cls-7{fill:#d3d3d3;}.cls-8{fill:#f2f2f2;stroke:#333535;stroke-miterlimit:10;stroke-width:0.25px;}.cls-9{fill:#333535;}.cls-10{fill:#a0a0a0;}.cls-11{fill:#dbc8db;}.cls-12{fill:#413a49;}.cls-13{fill:#c6c6c6;}.cls-14{fill:#e8eae8;}.cls-15{fill:#d1d3d1;}.cls-16{fill:#9fa09f;}.cls-17{fill:#c1c1c1;}.cls-18{fill:#efefef;}.cls-19{fill:#d84141;}.cls-20{fill:#f2df83;}.cls-21{fill:#26843d;}.cls-22{fill:#dce0dc;}.cls-23{fill:#5199ce;}.cls-24{fill:#e8c0b8;}.cls-25{fill:#c3b6d3;}.cls-26{fill:#efd9d3;}.cls-27{fill:#e7e1ef;}.cls-28{font-size:12px;fill:#9c93a5;font-family:MoskExtra-Bold800, Mosk;font-weight:700;opacity:0.3;}.cls-29{fill:#5f646d;}.cls-29,.cls-30,.cls-31,.cls-32,.cls-33,.cls-34,.cls-35,.cls-36,.cls-37,.cls-38{opacity:0.68;}.cls-30{fill:#5e696b;}.cls-31{fill:#5d6864;}.cls-32{fill:#5e665c;}.cls-33{fill:#66665d;}.cls-34{fill:#66645e;}.cls-35{fill:#66635f;}.cls-36{fill:#665f5b;}.cls-37{fill:#605553;}.cls-38{fill:#655f6b;}.cls-39{fill:#06ef37;}.cls-40{fill:#8c8277;}.cls-41{fill:#a3988e;}.cls-42{fill:#8da37f;}.cls-43{fill:#8b9668;}.cls-44{fill:#7f9372;}.cls-45{fill:#adc99d;}.cls-46{fill:#c4bcb5;}.cls-47{fill:#675fb7;}.cls-48{fill:#ef9286;}.cls-49{fill:#5a4963;}.cls-50{fill:#5b6789;}.cls-51{fill:#f2f1df;}.cls-52{fill:#d1cdb6;}.cls-53{fill:#a50c52;}.cls-54{fill:#933267;}.cls-55{fill:#701049;}.cls-56{fill:#fce9ac;}.cls-57{fill:#9e98a8;}</style></defs><g id="split_screen" data-name="split screen"><rect class="cls-1" x="0.38" y="1.43" width="727.38" height="840"/><rect class="cls-2" x="721.97" y="0.17" width="960.02" height="840"/></g><g id="light"><path class="cls-3" d="M872.58,679.63H346.81s-8.93-.19-8.93,10.23c0,0,.93,8.56,8.56,8.56H872.58s10-.19,10-9.4S872.58,679.63,872.58,679.63Z"/><path class="cls-4" d="M800.53,679.63h28s1.84-3.15.44-5.35c0,0-5.17,4.32-14.26,4a33.81,33.81,0,0,1-15.14-4S798.47,678,800.53,679.63Z"/><path class="cls-5" d="M814.39,667.35s-11.07-.47-14.82,6.93a29.57,29.57,0,0,0,15.14,4c9,0,14.26-4,14.26-4S826.93,667.62,814.39,667.35Z"/><rect class="cls-6" x="628.63" y="674.42" width="123.91" height="5.21"/><polygon class="cls-7" points="656.95 674.42 725.14 674.42 720.77 647.53 660.49 647.53 656.95 674.42"/><path class="cls-8" d="M506,647.53l371.48-.32a5.12,5.12,0,0,0,4.84-5.3c.05-5.07,0-35.4,0-35.4H498.72v34.23S498.25,647.54,506,647.53Z"/><path class="cls-9" d="M882.3,606.51,882.72,407s-1.26-9.91-10.05-9.91H509.46s-10.74-.14-10.88,12,.14,197.44.14,197.44Z"/><circle class="cls-10" cx="690.76" cy="627.62" r="7.4"/><rect class="cls-11" x="512.95" y="409.49" width="356.37" height="185.58"/><rect class="cls-12" x="637.7" y="409.49" width="231.63" height="185.58"/><rect class="cls-13" x="637.35" y="409.49" width="231.63" height="12.84"/><rect class="cls-14" x="523.56" y="415.91" width="101.4" height="171.63"/><rect class="cls-15" x="523.56" y="415.91" width="101.4" height="7.91"/><circle class="cls-16" cx="529.35" cy="420.16" r="1.74"/><circle class="cls-17" cx="535.98" cy="420.16" r="1.74"/><circle class="cls-16" cx="542.6" cy="420.16" r="1.74"/><rect class="cls-15" x="523.56" y="581.77" width="101.4" height="5.77"/><rect class="cls-18" x="617.32" y="423.81" width="7.63" height="157.95"/><circle class="cls-19" cx="648.98" cy="415.72" r="2.7"/><circle class="cls-20" cx="659.25" cy="415.91" r="2.7"/><circle class="cls-21" cx="668.99" cy="415.72" r="2.7"/><path class="cls-22" d="M623.25,429v38.86s0,2.23-2.11,2.23a2.09,2.09,0,0,1-2.49-2.23c-.07-2.65,0-38.86,0-38.86a2.56,2.56,0,0,1,2.29-2.23C622.91,426.64,623.2,429,623.25,429Z"/><path class="cls-23" d="M538.21,459.86h62.16s1.47-.14,1.54.84a1.26,1.26,0,0,1-1.4,1.39h-62.3S537,462,537,461C537,461,536.88,459.86,538.21,459.86Z"/><path class="cls-23" d="M538.43,449.81h73.11s1.72-.14,1.8.84c0,0,.17,1.4-1.64,1.4H538.43s-1.4-.15-1.48-1.12C537,450.93,536.87,449.81,538.43,449.81Z"/><path class="cls-23" d="M538.22,439.49h62.56s1.47-.14,1.54.83a1.27,1.27,0,0,1-1.4,1.4h-62.7s-1.2-.15-1.27-1.12C537,440.6,536.88,439.49,538.22,439.49Z"/><path class="cls-24" d="M607.42,476.88h-66s-6.28.28-6.28,6.84v41.44s-.7,6.14,5.72,6.14h67.67s4.75-.56,4.82-6.28,0-41.86,0-41.86S613.56,476.88,607.42,476.88Z"/><path class="cls-25" d="M607.42,581.77h-72.3V546.09s-.12-5.72,5.74-5.86,58.74,0,58.74,0,7.26-.84,7.82,6.42Z"/><path class="cls-26" d="M544.08,512.6h47.51s1.12-.14,1.17.84c0,0,.11,1.4-1.06,1.4H544.08a1.18,1.18,0,0,1-1-1.12S543.07,512.6,544.08,512.6Z"/><path class="cls-26" d="M543.8,521.53h33.49s.79-.14.82.84c0,0,.08,1.4-.75,1.4H543.8s-.64-.15-.68-1.12C543.12,522.65,543.08,521.53,543.8,521.53Z"/><path class="cls-27" d="M546.87,548.74h43.56s1-.14,1.08.84c0,0,.1,1.4-1,1.4H546.87a1.14,1.14,0,0,1-.88-1.12S545.94,548.74,546.87,548.74Z"/><path class="cls-27" d="M547,558.73h50.91s1.2-.13,1.25.84c0,0,.12,1.4-1.14,1.4H547a1.23,1.23,0,0,1-1-1.12A1,1,0,0,1,547,558.73Z"/><path class="cls-27" d="M547.32,568.84h43.12s1-.14,1.07.83c0,0,.1,1.4-1,1.4H547.32a1.14,1.14,0,0,1-.88-1.12S546.4,568.84,547.32,568.84Z"/><path class="cls-27" d="M546.88,578.18h32.8s.77-.14.81.84c0,0,.07,1.4-.74,1.4H546.88s-.63-.15-.66-1.12C546.22,579.3,546.18,578.18,546.88,578.18Z"/><circle class="cls-26" cx="551.98" cy="494.21" r="10.37"/><text class="cls-28" transform="translate(650.71 435.25)">22<tspan x="0" y="13">23</tspan><tspan x="0" y="26">24</tspan><tspan x="0" y="39">25</tspan><tspan x="0" y="52">26</tspan><tspan x="0" y="65">27</tspan><tspan x="0" y="78">28</tspan><tspan x="0" y="91">29</tspan><tspan x="0" y="104">30</tspan><tspan x="0" y="117">31</tspan><tspan x="0" y="130">32</tspan><tspan x="0" y="143">33</tspan><tspan x="0" y="156">34</tspan></text><rect class="cls-29" x="671.68" y="442.6" width="146.19" height="6.54"/><rect class="cls-30" x="671.68" y="455.42" width="118.91" height="6.67"/><rect class="cls-30" x="671.68" y="468.37" width="101.56" height="6.67"/><rect class="cls-31" x="671.68" y="480.5" width="84.34" height="6.67"/><rect class="cls-32" x="671.68" y="494.21" width="140.81" height="6.67"/><rect class="cls-32" x="671.68" y="507.04" width="109.14" height="7.79"/><rect class="cls-33" x="671.68" y="519.87" width="115.67" height="6.67"/><rect class="cls-34" x="671.68" y="532.49" width="135.24" height="6.67"/><rect class="cls-35" x="671.3" y="545.12" width="64.57" height="6.67"/><rect class="cls-36" x="671.68" y="558.85" width="115.67" height="6.67"/><rect class="cls-37" x="671.68" y="571.07" width="100.08" height="6.67"/><rect class="cls-37" x="671.46" y="583.29" width="153.35" height="6.67"/><rect class="cls-9" x="766.27" y="505.04" width="94.28" height="82.92"/><rect class="cls-13" x="766.27" y="505.04" width="94.28" height="9.79"/><circle class="cls-19" cx="771.5" cy="510.94" r="1.74"/><circle class="cls-20" cx="779.08" cy="510.94" r="1.74"/><circle class="cls-21" cx="786.56" cy="510.94" r="1.74"/><rect class="cls-38" x="671.68" y="429.91" width="116.62" height="6.54"/><path class="cls-39" d="M774.25,524l2.61,2.6L774.25,529s-.27.6,0,1a.86.86,0,0,0,1.24.12,43.09,43.09,0,0,0,3.53-3.26l-3.58-3.88s-1-.37-1.31.12A.74.74,0,0,0,774.25,524Z"/><path class="cls-39" d="M784.58,528.84h-5.35a.89.89,0,0,0-.53.74s0,.81.48.88h5.4a.72.72,0,0,0,.49-.81A.67.67,0,0,0,784.58,528.84Z"/><rect class="cls-3" x="284.3" y="459.85" width="193.49" height="8.52"/><polygon class="cls-40" points="301.79 423.81 306.07 459.85 344.21 459.85 347.19 423.81 301.79 423.81"/><path class="cls-41" d="M351,408.09H299.88s-3.49.14-3.49,2.93v10.75a3.3,3.3,0,0,0,3.07,2H351s2.24-.23,2.38-2,0-10.75,0-10.75A2.6,2.6,0,0,0,351,408.09Z"/><path class="cls-42" d="M277.79,340.28S274,390,299.88,408.09h14S306.81,357.58,277.79,340.28Z"/><path class="cls-42" d="M300.67,340.28s27.91,30.14,20.84,67.72H308.67S294.16,375.63,300.67,340.28Z"/><path class="cls-43" d="M307.93,321.86S342.35,361.7,324.49,408l-10.61.08S296.21,353.3,307.93,321.86Z"/><path class="cls-42" d="M340.12,328.37s16.18,46.33-9.49,79.44l-9.12.19S309.42,351.25,340.12,328.37Z"/><path class="cls-42" d="M351,408.09s21.17-33.49,15.49-69.39c0,0-27.25,21.53-38.05,69.41Z"/><path class="cls-44" d="M307.19,408.09l17.3-.08s-5.58-42.43-22.7-54.89c0,0-5.4,24.65-.84,36.93S307.19,408.09,307.19,408.09Z"/><path class="cls-44" d="M342.91,408.09l-21.4-.09s2.23-46.51,16.75-60.09C338.26,347.91,353.7,368.74,342.91,408.09Z"/><path class="cls-45" d="M313.88,408.09h19c.14,1-2.28-30.25-9.49-46.79C323.37,361.3,313.88,385.12,313.88,408.09Z"/><path class="cls-46" d="M300.21,409.21s-1.32-.93-1.22,4.09,1.22,3.72,1.22,3.72A18.1,18.1,0,0,0,300.21,409.21Z"/><path class="cls-46" d="M301.23,418.79s-.25-1.4-1.42-.65S300.67,420.65,301.23,418.79Z"/><rect class="cls-47" x="436.63" y="364.98" width="21.91" height="94.88"/><rect class="cls-48" x="436.63" y="382.68" width="21.91" height="4.05"/><rect class="cls-49" x="417.79" y="374.14" width="19.12" height="85.71"/><path class="cls-50" d="M382.72,455.53l17.49-63.62s-.14-3.21,4.6-1.68l9.21,2.93s2.1.56,1,4.47l-17.16,61.25a1,1,0,0,0,1.67.35l18-64.72s.65-2.6-1.3-3.26-12.93-4-12.93-4-3-1-3.72,1.43-18.51,66.11-18.51,66.11S381.23,456.37,382.72,455.53Z"/><path class="cls-51" d="M382.72,455.53l17.49-63.62s.29-3,3.64-1.94S414,393.16,414,393.16s2.08.52,1,4.47l-17.16,61.25Z"/><path class="cls-52" d="M409.84,394.35s-6.63,20.65-7,23.79C402.79,418.14,410.12,399,409.84,394.35Z"/><polygon class="cls-53" points="414.37 401.6 408.12 399.77 406.32 405.56 412.18 407.68 411.86 403.73 414.37 401.6"/><path class="cls-54" d="M441.13,633.76c-4.17,8.1-2.09,27.77-1.53,34S446.83,680,446.83,680l20.22-.32s6.69-5.86,7.25-12.14,2.65-26-1.53-34Z"/><path class="cls-55" d="M431.88,635.39s6.48.73,7.36,4.9l-.65,5.57s-2.1-1-2.1-1.82-1-5.72-5.17-4.46-2.23,7.4-2.23,7.4l9.79,12,.36,7.26-1.36-3.35s-13.11-13.53-12.69-16.32C425.19,646.56,422.64,637,431.88,635.39Z"/><path class="cls-56" d="M613.74,182.94s-2.83,20.59-20.42,21.71c0,0-21.62,1.49-24-21.19Z"/><rect class="cls-25" x="535.98" y="175.63" width="110.3" height="7.81"/><path class="cls-57" d="M541.79,175.63H641.88s3.54-58.79-50-58.79S541.79,175.63,541.79,175.63Z"/><path class="cls-25" d="M591.84,82.88s-16.1.75-16.65,17.21v19a78.79,78.79,0,0,1,16.65-2.25,66.89,66.89,0,0,1,16.65,2.25V98.88S608,83.72,591.84,82.88Z"/><rect class="cls-57" x="589.6" y="-48.82" width="4.09" height="124.84"/><path class="cls-57" d="M591.84,73.67s-5.82,0-5.72,5.45v5.09s4.25-1.45,5.73-1.33a39.55,39.55,0,0,1,5.63,1v-5A5.36,5.36,0,0,0,591.84,73.67Z"/></g></svg>