<?xml version="1.0" standalone="no"?><svg xmlns="http://www.w3.org/2000/svg" viewBox="0 0 1440 320"><path fill="#eeecec" fill-opacity="1" d="M0,128L40,138.7C80,149,160,171,240,154.7C320,139,400,85,480,64C560,43,640,53,720,90.7C800,128,880,192,960,202.7C1040,213,1120,171,1200,160C1280,149,1360,171,1400,181.3L1440,192L1440,320L1400,320C1360,320,1280,320,1200,320C1120,320,1040,320,960,320C880,320,800,320,720,320C640,320,560,320,480,320C400,320,320,320,240,320C160,320,80,320,40,320L0,320Z"></path></svg>